# xmcd
# Track frame offsets:
# 150
# 13810
# 28601
# 46458
# 61710
# 76798
# 89943
# 105646
# 119390
# 134243
# 144912
# 159276
# 174844
# 190776
# 205459
# 221424
# 238874
# 250692
# 270558
#
# Disc length: 3790 seconds
# Revision: 0
# Processed by: cddbd v1.5.2PL0 Copyright (c) Steve Scherf et al.
# Submitted via: VisiTrax 2.11.2.271 - For more info visit www.synapsa.com
#
DISCID=090ecc13
DTITLE=Various Artist - Promo Only Country - August 2012
DYEAR=2012
DGENRE=Country
TTITLE0=Andy Gibson - Summer Back
TTITLE1=Miranda Lambert - Fastest Girl In Town (Clean Edit)
TTITLE2=Big and Rich - That's Why I Pray
TTITLE3=Carrie Underwood - Good Girl
TTITLE4=Hank Williams, Jr. - That Ain't Good (Clean Edit)
TTITLE5=Zac Brown Band - The Wind
TTITLE6=Trace Adkins - Them Lips (On Mine)
TTITLE7=Sawyer Brown - Ain't Goin' Out That Way
TTITLE8=Craig Morgan - Corn Star
TTITLE9=Maggie Rose - I Ain't Your Mama
TTITLE10=Tommy Steele - My Side Of The Street
TTITLE11=Matt Gary - City Lights
TTITLE12=Katie Arminger - Better In A Black Dress
TTITLE13=John Colbert - Latino Sweet
TTITLE14=Parmalee - Musta Had A Good Time
TTITLE15=Barefoot - Feel Free
TTITLE16=Kelly Hogan - Dusty Groove
TTITLE17=Randy Travis Feat. Don Henley - More Life
TTITLE18=Scarletta - Right Here Right Now
EXTD=
EXTT0=
EXTT1=
EXTT2=
EXTT3=
EXTT4=
EXTT5=
EXTT6=
EXTT7=
EXTT8=
EXTT9=
EXTT10=
EXTT11=
EXTT12=
EXTT13=
EXTT14=
EXTT15=
EXTT16=
EXTT17=
EXTT18=
PLAYORDER=
